# xmcd CD database file
#
# Track frame offsets:
#	150
#	18747
#	33307
#	47127
#	57963
#
# Disc length: 1014 seconds
#
# Revision: 0
# Processed by: cddbd v1.5.1PL0 Copyright (c) Steve Scherf et al.
# Submitted via: CDex 1.51
#
DISCID=3d03f405
DTITLE=Various Artist - COUNTRY VYBER 3
DYEAR=2003
DGENRE=Country
TTITLE0=Ruze z Texasu - P. T. Vesely
TTITLE1=At te country pohladi - Mirek Hoffmann a Zelenaci
TTITLE2=Falesny hrac - Fr. Nedved ml.
TTITLE3=Blues Folsomske veznice - Tomas Linka
TTITLE4=Jenofefa - Fr. Nedved ml. 
EXTD=YEAR: 2003
EXTT0=
EXTT1=
EXTT2=
EXTT3=
EXTT4=
PLAYORDER=
